<svg width="33" height="24" viewBox="0 0 33 24" fill="none" xmlns="http://www.w3.org/2000/svg">
<path d="M16.5 0C19.4249 1.46142e-05 21.9059 1.01923 23.9434 3.05664C25.9808 5.09408 26.9999 7.57512 27 10.5C28.725 10.7 30.1565 11.444 31.2939 12.7314C32.4313 14.0189 33 15.5252 33 17.25C33 19.1249 32.3436 20.7188 31.0312 22.0312C29.7188 23.3437 28.1249 24 26.25 24H8.25C5.97506 24 4.03142 23.2126 2.41895 21.6377C0.806451 20.0627 0 18.1373 0 15.8623C8.50126e-05 13.9125 0.587785 12.1753 1.7627 10.6504C2.93768 9.12541 4.47503 8.15059 6.375 7.72559C7 5.42559 8.25001 3.56269 10.125 2.1377C12 0.712734 14.125 0 16.5 0ZM16.5 3C14.425 3 12.6559 3.73184 11.1934 5.19434C9.73114 6.65671 9.00006 8.42527 9 10.5H8.25C6.80001 10.5 5.56211 11.0131 4.53711 12.0381C3.51241 13.063 3.00005 14.3003 3 15.75C3 17.1999 3.51218 18.4379 4.53711 19.4629C5.56211 20.4879 6.80001 21 8.25 21H26.25C27.2998 21 28.1872 20.6378 28.9121 19.9131C29.6371 19.1881 30 18.3 30 17.25C29.9999 16.2001 29.6371 15.3128 28.9121 14.5879C28.1871 13.863 27.2999 13.5 26.25 13.5H24V10.5C23.9999 8.4253 23.2688 6.6567 21.8066 5.19434C20.3442 3.73186 18.575 3.00001 16.5 3ZM16.5 15C16.9249 15 17.2809 15.1442 17.5684 15.4316C17.8558 15.7191 17.9999 16.0751 18 16.5C18 16.925 17.8559 17.2818 17.5684 17.5693C17.2809 17.8566 16.9248 18 16.5 18C16.0752 18 15.7191 17.8566 15.4316 17.5693C15.1441 17.2818 15 16.925 15 16.5C15.0001 16.0751 15.1442 15.7191 15.4316 15.4316C15.7191 15.1442 16.0751 15 16.5 15ZM16.5 6C16.9249 6.00001 17.2809 6.14422 17.5684 6.43164C17.8558 6.71908 17.9999 7.07512 18 7.5V11.25C18 11.675 17.8559 12.0318 17.5684 12.3193C17.2809 12.6066 16.9248 12.75 16.5 12.75C16.0752 12.75 15.7191 12.6066 15.4316 12.3193C15.1441 12.0318 15 11.675 15 11.25V7.5C15.0001 7.07512 15.1442 6.71908 15.4316 6.43164C15.7191 6.14425 16.0751 6 16.5 6Z" fill="currentColor"/>
</svg>
