<svg width="40" height="22" viewBox="0 0 40 22" fill="none" xmlns="http://www.w3.org/2000/svg">
<path d="M33.5 16.0866C33.5 8.38679 27.6989 2.5 19.9991 2.5C12.2993 2.5 6.5 8.38679 6.5 16.0866C6.5 23.7864 12.2993 19 19.9991 19C11.1148 19 3.92865 24.9709 3.92865 16.0866C3.92865 7.20221 11.1148 0 19.9991 0C28.8835 0 36.0857 7.20221 36.0857 16.0866C36.0857 24.9709 28.8835 19 19.9991 19C27.6989 19 33.5 23.7864 33.5 16.0866Z" fill="currentColor"/>
<path d="M19.4309 8H20.9379L20.9058 10.5435H19.479L19.4309 8ZM22.3647 12.93C22.2044 12.6264 22.0227 12.349 21.8196 12.0978C21.6273 11.8362 21.3975 11.6268 21.1303 11.4698C20.8631 11.3128 20.5478 11.2343 20.1844 11.2343C19.8103 11.2343 19.5003 11.2866 19.2545 11.3913C19.0194 11.496 18.843 11.6477 18.7255 11.8466C18.6186 12.035 18.5651 12.2653 18.5651 12.5374C18.5651 12.8933 18.688 13.1864 18.9339 13.4167C19.1797 13.6469 19.5003 13.8458 19.8958 14.0133C20.2912 14.1808 20.7134 14.3482 21.1623 14.5157C21.483 14.6308 21.809 14.7774 22.1403 14.9553C22.4823 15.1333 22.7923 15.3531 23.0701 15.6147C23.348 15.8659 23.5725 16.1747 23.7435 16.5411C23.9145 16.9074 24 17.3366 24 17.8285C24 18.467 23.8504 19.027 23.5511 19.5085C23.2518 19.9899 22.8243 20.3615 22.2685 20.6232C21.7128 20.8744 21.0341 21 20.2325 21C19.5912 21 18.9927 20.8744 18.4369 20.6232C17.8811 20.3615 17.3948 20.0109 16.978 19.5713C16.5611 19.1316 16.2351 18.6292 16 18.064L17.4589 17.1377C17.6941 17.6192 17.9506 18.0274 18.2285 18.3623C18.5063 18.6973 18.811 18.9537 19.1423 19.1316C19.4843 19.3096 19.8744 19.3986 20.3126 19.3986C20.6974 19.3986 21.0127 19.341 21.2585 19.2258C21.515 19.1107 21.7021 18.9432 21.8196 18.7234C21.9479 18.4932 22.012 18.221 22.012 17.907C22.012 17.4988 21.8891 17.1691 21.6433 16.9179C21.4082 16.6562 21.0982 16.4364 20.7134 16.2585C20.3393 16.0805 19.9385 15.913 19.511 15.756C19.2331 15.6618 18.9232 15.5362 18.5812 15.3792C18.2498 15.2118 17.9345 15.0024 17.6353 14.7512C17.336 14.4895 17.0902 14.1755 16.8978 13.8092C16.7054 13.4428 16.6092 12.998 16.6092 12.4746C16.6092 11.9618 16.7589 11.496 17.0581 11.0773C17.3681 10.6586 17.7902 10.3237 18.3246 10.0725C18.8591 9.82126 19.4629 9.69565 20.1363 9.69565C20.8096 9.69565 21.3868 9.81079 21.8677 10.0411C22.3594 10.2713 22.7655 10.5644 23.0862 10.9203C23.4175 11.2762 23.674 11.6477 23.8557 12.035L22.3647 12.93Z" fill="currentColor"/>
<path d="M39.9616 20.021C39.819 20.7191 39.2701 21.2708 38.5722 21.4139L38.2126 21.4488H1.7874C0.800245 21.4488 0 20.6486 0 19.6614C0 18.6743 0.800246 17.874 1.7874 17.874H38.2126L38.5722 17.9089C39.3863 18.0759 40 18.7979 40 19.6614L39.9616 20.021Z" fill="currentColor"/>
</svg>
